<?xml version="1.0" encoding="utf-8"?>
<!-- Generator: Adobe Illustrator 26.0.1, SVG Export Plug-In . SVG Version: 6.00 Build 0)  -->
<svg version="1.1" id="Layer_1" xmlns="http://www.w3.org/2000/svg" xmlns:xlink="http://www.w3.org/1999/xlink" x="0px" y="0px"
	 viewBox="0 0 107 84.3" style="enable-background:new 0 0 107 84.3;" xml:space="preserve">
<style type="text/css">
	.st0{fill:#312780;}
</style>
<g>
	<g>
		<path class="st0" d="M63.2,54c0.4,0.2,0.3,0.8-0.1,0.9C62,55.2,61,55.4,60,55.4c-2.3,0-4.4-0.9-5.5-2.3l-0.2-0.2
			c-0.4-0.5-1.2-0.5-1.7,0l-0.2,0.2c-1.1,1.5-3.2,2.3-5.5,2.3c-1,0-2-0.2-3.1-0.4c-0.5-0.1-0.5-0.7-0.1-0.9c2-1,3.3-2.8,4-3.6
			c0.1-0.1,0.2-0.2,0.2-0.3l0.1-0.1c0.4-0.5,1.5-1.1,2.6-1.1c0.5,0,1.3,0.1,1.8,0.6l0.2,0.2c0.4,0.4,1.1,0.4,1.5,0l0.2-0.2
			c0.5-0.5,1.3-0.6,1.8-0.6c1.1,0,2.2,0.6,2.6,1.1l0.1,0.1c0.1,0,0.1,0.2,0.2,0.3C59.8,51.2,61.2,52.9,63.2,54L63.2,54z"/>
		<path class="st0" d="M53.5,42.6c-10,0-18,2.3-18,5.1c0,1.5,2.5,3,6.5,3.9c0.4,0.1,0.9,0,1.2-0.2c1.3-0.8,2.2-2.1,2.7-2.7
			c0.2-0.2,0.2-0.3,0.3-0.5c1-1.2,2.8-2.1,4.5-2.1c0.8,0,1.6,0.2,2.3,0.5c0.3,0.1,0.6,0.1,0.9,0c0.7-0.3,1.4-0.5,2.3-0.5
			c1.7,0,3.6,0.9,4.6,2.1c0.1,0.1,0.2,0.2,0.3,0.4c0.5,0.6,1.4,1.8,2.7,2.7c0.4,0.2,0.8,0.3,1.2,0.2c3.9-0.9,6.4-2.3,6.4-3.9
			C71.5,44.9,63.4,42.6,53.5,42.6L53.5,42.6L53.5,42.6z"/>
		<path class="st0" d="M65,40.9l-8.4-23.7c-0.3-1-1.4-1.5-3.1-1.5s-2.8,0.6-3.1,1.5l-2.5,7.1c0,0,0,0.1,0.1,0.1l1.2-0.1
			c0.1,0,0.2,0,0.2-0.2l1.3-1.9c0.2-0.2,0.5-0.2,0.6,0.1l0,0l0.8,2.2c0,0.1,0.1,0.2,0.2,0.2l2.2,0.7c0.2,0.1,0.3,0.4,0.1,0.6
			l-1.8,1.5c-0.1,0.1-0.1,0.2-0.1,0.3l0.1,2.3c0,0.3-0.3,0.4-0.5,0.3l-1.9-1.2c-0.1,0-0.2-0.1-0.3,0l-2.2,0.8
			c-0.2,0.1-0.5-0.2-0.4-0.4l0.6-2.2c0-0.1,0-0.2,0-0.3l-0.6-0.8c0,0-0.1,0-0.2,0L42,40.9c-0.1,0.4,0.2,0.8,0.6,0.7
			c3-0.7,6.8-1,10.8-1s8,0.4,11.1,1.1l0,0C64.8,41.6,65.2,41.3,65,40.9L65,40.9z M60.1,33c-0.1,3.2-2.8,5.8-6,5.7
			c-1.4,0-2.8-0.6-3.7-1.5c-0.2-0.2,0-0.6,0.3-0.5c0.7,0.2,1.5,0.4,2.3,0.3c2.8-0.2,5.1-2.4,5.4-5.2c0.1-0.9,0-1.7-0.2-2.5
			c-0.1-0.3,0.3-0.5,0.5-0.3C59.6,30.1,60.1,31.5,60.1,33L60.1,33L60.1,33z"/>
		<path class="st0" d="M53.5,13.5c1.4,0,2.3,0.4,2.8,1c0.2,0.2,0.5,0.2,0.7,0.1c1.3-1.1,2.1-2.7,2-4.6c-0.1-2.9-2.4-5.2-5.3-5.4
			c-3.1-0.1-5.8,2.4-5.8,5.6c0,1.7,0.8,3.3,2,4.3c0.2,0.2,0.5,0.1,0.7-0.1C51.2,13.9,52.2,13.5,53.5,13.5L53.5,13.5L53.5,13.5z"/>
		<path class="st0" d="M56,57.4c0.2,0.2,0.3,0.4,0.2,0.7c-0.1,0.2-0.2,0.3-0.2,0.4c-0.6,0.9-1.4,1.7-2.1,2.3c-0.2,0.2-0.5,0.2-0.7,0
			c-0.7-0.6-1.5-1.4-2.1-2.3c-0.1-0.1-0.2-0.3-0.2-0.4c-0.1-0.2,0-0.6,0.2-0.7c0.6-0.3,1.1-0.8,1.5-1.3l0.1-0.1l0.1-0.1
			c0.2-0.3,0.5-0.4,0.8-0.4h0.1c0.3,0,0.6,0.2,0.8,0.4l0.1,0.1l0.1,0.1C54.9,56.6,55.4,57,56,57.4L56,57.4L56,57.4z"/>
	</g>
	<path class="st0" d="M14.7,79.6c-0.6,0-1.1-0.2-1.5-0.6s-0.5-0.9-0.5-1.6V66.8c0-0.7,0.2-1.2,0.5-1.6s0.9-0.6,1.6-0.6h6.8
		c0.5,0,1,0.2,1.2,0.4c0.3,0.3,0.4,0.7,0.4,1.2s-0.2,1-0.4,1.2c-0.3,0.3-0.7,0.4-1.2,0.4h-4.9v9.5c0,0.7-0.2,1.2-0.5,1.6
		C15.9,79.4,15.4,79.6,14.7,79.6L14.7,79.6L14.7,79.6z"/>
	<path class="st0" d="M27.7,79.6c-0.7,0-1.2-0.2-1.5-0.6s-0.5-0.9-0.5-1.6V66.8c0-0.7,0.2-1.2,0.5-1.6s0.9-0.6,1.5-0.6h5.1
		c1.7,0,3,0.4,3.9,1.3c0.9,0.9,1.4,2.1,1.4,3.6s-0.5,2.7-1.4,3.6c-0.9,0.9-2.2,1.3-3.9,1.3h-3.1v3.1c0,0.7-0.2,1.2-0.5,1.6
		C28.9,79.4,28.4,79.6,27.7,79.6L27.7,79.6L27.7,79.6z M29.8,71.2h2.3c0.7,0,1.2-0.2,1.5-0.4s0.5-0.7,0.5-1.3s-0.2-1-0.5-1.3
		s-0.9-0.4-1.5-0.4h-2.3V71.2L29.8,71.2z"/>
	<path class="st0" d="M47.6,79.6c-1.5,0-2.8-0.3-3.9-0.9c-1.1-0.6-2-1.5-2.6-2.6c-0.6-1.1-0.9-2.4-0.9-3.9c0-1.1,0.2-2.2,0.5-3.1
		c0.3-0.9,0.8-1.7,1.5-2.4s1.4-1.2,2.3-1.5c0.9-0.3,1.9-0.5,3-0.5c1.5,0,2.8,0.3,3.9,0.9c1.1,0.6,2,1.5,2.6,2.6
		c0.6,1.1,0.9,2.4,0.9,3.9c0,1.1-0.2,2.2-0.5,3.1c-0.3,0.9-0.8,1.7-1.5,2.4s-1.5,1.2-2.4,1.5C49.7,79.4,48.7,79.6,47.6,79.6
		L47.6,79.6z M47.6,76.2c0.7,0,1.2-0.2,1.7-0.5s0.8-0.8,1.1-1.4c0.3-0.6,0.4-1.3,0.4-2.2c0-1.3-0.3-2.3-0.8-3
		c-0.6-0.7-1.3-1.1-2.3-1.1c-0.7,0-1.2,0.2-1.7,0.5c-0.5,0.3-0.8,0.8-1.1,1.4c-0.2,0.6-0.4,1.3-0.4,2.2c0,1.3,0.3,2.3,0.8,3
		C45.8,75.8,46.6,76.2,47.6,76.2L47.6,76.2L47.6,76.2z"/>
	<path class="st0" d="M73.4,66.6v11.1c0,0.6-0.2,1.1-0.5,1.5c-0.3,0.3-0.8,0.5-1.4,0.5s-1.1-0.2-1.4-0.5s-0.5-0.8-0.5-1.5v-5.8
		l-2.6,4.5c-0.2,0.3-0.4,0.6-0.7,0.7c-0.2,0.2-0.6,0.2-0.9,0.2s-0.7-0.1-0.9-0.2s-0.4-0.4-0.7-0.7l-2.6-4.5v5.7
		c0,0.6-0.2,1.1-0.5,1.5c-0.3,0.3-0.8,0.5-1.4,0.5s-1.1-0.2-1.4-0.5s-0.5-0.8-0.5-1.5V66.5c0-0.6,0.2-1.1,0.5-1.4
		c0.3-0.3,0.8-0.5,1.4-0.5c0.5,0,0.9,0.1,1.2,0.3c0.3,0.2,0.6,0.5,0.8,1l3.9,6.8l3.9-6.8c0.2-0.4,0.5-0.8,0.8-1s0.7-0.3,1.2-0.3
		c0.6,0,1.1,0.2,1.4,0.5C73.3,65.5,73.4,65.9,73.4,66.6L73.4,66.6L73.4,66.6z"/>
	<path class="st0" d="M75.6,78.4c0.1,0.4,0.3,0.7,0.6,0.9c0.3,0.2,0.7,0.3,1.2,0.3c0.6,0,1-0.1,1.3-0.4c0.3-0.3,0.6-0.7,0.8-1.3
		l0.6-1.3h6.3l0.6,1.3c0.2,0.6,0.5,1.1,0.8,1.3c0.2,0.1,0.3,0.2,0.6,0.3c0.2,0.1,0.5,0.1,0.8,0.1c0.2,0,0.5,0,0.7-0.1
		c0.2-0.1,0.3-0.1,0.4-0.2c0.3-0.2,0.5-0.5,0.6-0.9c0.1-0.4,0-0.8-0.2-1.3l-5-10.8c-0.2-0.6-0.6-1-1-1.3c-0.4-0.3-0.8-0.4-1.3-0.4
		s-1,0.1-1.4,0.4c-0.2,0.1-0.3,0.2-0.5,0.4c-0.2,0.2-0.4,0.5-0.5,0.9l-5,10.8C75.6,77.6,75.5,78,75.6,78.4L75.6,78.4L75.6,78.4z
		 M83.1,69.1L83.1,69.1l1.9,4.3h-3.6L83.1,69.1L83.1,69.1z"/>
	<path class="st0" d="M94.9,79.6c-0.7,0-1.2-0.2-1.5-0.6s-0.5-0.9-0.5-1.6V66.8c0-0.7,0.2-1.2,0.6-1.6s0.9-0.6,1.6-0.6h6.8
		c0.6,0,1,0.2,1.2,0.4c0.3,0.3,0.4,0.7,0.4,1.2s-0.2,1-0.4,1.2c-0.3,0.3-0.7,0.4-1.2,0.4H97v9.5c0,0.7-0.2,1.2-0.5,1.6
		C96.1,79.4,95.6,79.6,94.9,79.6L94.9,79.6L94.9,79.6z"/>
	<path class="st0" d="M6.7,79.6c-0.6,0-1.1-0.2-1.5-0.6s-0.5-0.9-0.5-1.6V66.6c0-0.7,0.2-1,0.5-1.4c0.4-0.4,0.9-0.6,1.5-0.6
		s1.2,0.2,1.5,0.6s0.5,0.7,0.5,1.4v10.9c0,0.7-0.2,1.2-0.5,1.6C7.9,79.4,7.4,79.6,6.7,79.6L6.7,79.6z"/>
	<path class="st0" d="M9.9,61.2c0,0.8-0.2,1.6-0.7,2.2c-0.2,0.2-0.5,0.2-0.7-0.1c0-0.1-0.1-0.2-0.2-0.2c-0.4-0.3-0.9-0.6-1.5-0.6
		s-1.1,0.2-1.5,0.6c-0.1,0.1-0.1,0.2-0.2,0.2c-0.2,0.2-0.5,0.2-0.7,0c-0.4-0.6-0.7-1.2-0.7-2c0-1.8,1.5-3.3,3.4-3.2
		C8.5,58.3,9.8,59.6,9.9,61.2L9.9,61.2z"/>
</g>
</svg>
